<svg xmlns="http://www.w3.org/2000/svg" width="177" height="177" viewBox="0 0 177 177">

  <path class="logo-arrow2" d="M301.1,3350.47l45.787,105.95-80.8-46.96,25.5-58.99c1.593-1.56,3.173-2.22,4.739-1.96Q298.714,3348.09,301.1,3350.47Zm-6.972,77.91L245.8,3456.42l19.427-44.85Zm2.35,68.62c-24.292,0-45.336-8.73-62.545-25.93S208,3432.8,208,3408.48c0-24.29,8.726-45.34,25.935-62.54S272.187,3320,296.48,3320c24.32,0,45.376,8.73,62.585,25.94h0c17.209,17.2,25.935,38.25,25.935,62.54,0,24.32-8.726,45.38-25.936,62.58S320.8,3497,296.48,3497Zm0-167.6c-22.015,0-40.3,7.58-55.9,23.18s-23.182,33.89-23.182,55.9c0,22.04,7.583,40.34,23.182,55.94s33.884,23.18,55.9,23.18c22.041,0,40.339-7.58,55.938-23.18s23.182-33.9,23.182-55.94c0-22.01-7.583-40.3-23.182-55.9h0C336.819,3336.98,318.522,3329.4,296.48,3329.4Z" transform="translate(-208 -3320)"/>
</svg>
