<svg xmlns="http://www.w3.org/2000/svg" >
  <symbol id='logo-header' viewBox="0 0 68 68">
    <path d="M239.768,85.707l17.591,40.7-31.044-18.042,9.8-22.662a2.1,2.1,0,0,1,1.82-.752A2.072,2.072,0,0,1,239.768,85.707Zm-2.678,29.93-18.569,10.774,7.463-17.23Zm0.9,26.363A34.018,34.018,0,0,1,204,107.993a33.992,33.992,0,0,1,58.036-24.029h0a33.973,33.973,0,0,1,0,48.072A32.9,32.9,0,0,1,237.992,142Zm0-64.388a30.407,30.407,0,0,0-30.381,30.381,30.382,30.382,0,0,0,51.872,21.49,29.04,29.04,0,0,0,8.906-21.49,29.022,29.022,0,0,0-8.906-21.476h0A29.033,29.033,0,0,0,237.992,77.612Z" transform="translate(-204 -74)" fill="#28c8c6" fill-rule="evenodd"/>
  </symbol>

  <symbol id='logo-2nd' viewBox="0 0 177 177">
   <path class="cls-1" d="M301.1,3350.47l45.787,105.95-80.8-46.96,25.5-58.99c1.593-1.56,3.173-2.22,4.739-1.96Q298.714,3348.09,301.1,3350.47Zm-6.972,77.91L245.8,3456.42l19.427-44.85Zm2.35,68.62c-24.292,0-45.336-8.73-62.545-25.93S208,3432.8,208,3408.48c0-24.29,8.726-45.34,25.935-62.54S272.187,3320,296.48,3320c24.32,0,45.376,8.73,62.585,25.94h0c17.209,17.2,25.935,38.25,25.935,62.54,0,24.32-8.726,45.38-25.936,62.58S320.8,3497,296.48,3497Zm0-167.6c-22.015,0-40.3,7.58-55.9,23.18s-23.182,33.89-23.182,55.9c0,22.04,7.583,40.34,23.182,55.94s33.884,23.18,55.9,23.18c22.041,0,40.339-7.58,55.938-23.18s23.182-33.9,23.182-55.94c0-22.01-7.583-40.3-23.182-55.9h0C336.819,3336.98,318.522,3329.4,296.48,3329.4Z" transform="translate(-208 -3320)"/>
  </symbol>

  <symbol id='arrow-bottom' viewBox="0 0 21 21.062">
    <path class="cls-1" d="M458.5,634.158A10.537,10.537,0,1,1,469,623.621,10.518,10.518,0,0,1,458.5,634.158Zm0-19.1a8.561,8.561,0,1,0,8.531,8.561A8.546,8.546,0,0,0,458.5,615.06Zm3.685,10.21-2.953,3.293,0,0a0.972,0.972,0,0,1-1.458,0l0,0-2.953-3.293,0,0a0.982,0.982,0,1,1,1.458-1.316l0,0,1.237,1.379v-5.986a0.984,0.984,0,1,1,1.968,0v5.986l1.237-1.379,0,0a0.982,0.982,0,1,1,1.458,1.316Z" transform="translate(-448 -613.094)"/>
  </symbol>

  <symbol id='arrow-right' viewBox="0 0 16 16">
    <path class="cls-1" d="M1353,104a8,8,0,1,1,8,8A8.01,8.01,0,0,1,1353,104Zm14,0a6,6,0,1,0-6,6A6.005,6.005,0,0,0,1367,104Zm-2,0-4-4v3h-3v2h3v3Z" transform="translate(-1353 -96)"/>
  </symbol>

  <symbol id=''>
  </symbol>

  <symbol id=''>
  </symbol>

  <symbol id=''>
  </symbol>
</svg>
